<?xml version="1.0" encoding="UTF-8" standalone="no"?>
<!DOCTYPE svg PUBLIC "-//W3C//DTD SVG 1.1//EN" "http://www.w3.org/Graphics/SVG/1.1/DTD/svg11.dtd">
<svg version="1.1" xmlns="http://www.w3.org/2000/svg" xmlns:xlink="http://www.w3.org/1999/xlink" preserveAspectRatio="xMidYMid meet" viewBox="0 0 64 64" width="64" height="64"><defs><path d="M51.49 0.38C58.4 0.38 64 5.97 64 12.88C64 23.18 64 41.82 64 52.18C64 58.92 58.54 64.38 51.81 64.38C41.44 64.38 22.37 64.38 11.96 64.38C5.35 64.38 0 59.02 0 52.42C0 42.01 0 22.93 0 12.57C0 5.83 5.46 0.38 12.19 0.38C22.56 0.38 41.2 0.38 51.49 0.38Z" id="aDXZ1Nd5l"></path><path d="M53.44 37.82C53.95 36.85 53.38 35.66 52.3 35.45C51.73 35.33 52.74 35.54 52.32 35.45C50.6 35.11 48.85 35.89 47.97 37.4C47.08 38.9 45.22 42.06 44.16 43.86C43.81 44.46 43.06 44.68 42.44 44.37C42.24 44.27 42.66 44.48 42.44 44.37C41.85 44.08 41.52 43.44 41.63 42.79C42.37 38.21 44.34 26.02 45.06 21.56C45.21 20.61 44.62 19.69 43.68 19.45C43.24 19.34 43.54 19.42 43.09 19.3C42.18 19.07 41.26 19.62 41.04 20.52C40.12 24.19 37.69 33.93 36.75 37.69C36.59 38.3 35.92 38.61 35.35 38.33C35.17 38.24 35.41 38.36 35.15 38.23C34.72 38.01 34.45 37.57 34.45 37.09C34.45 32.87 34.45 22.11 34.45 18.17C34.45 16.97 33.48 16 32.28 16C31.71 16 32.25 16 31.7 16C30.46 16 29.45 17.01 29.45 18.25C29.45 22.18 29.45 32.87 29.45 37.09C29.45 37.57 29.18 38.01 28.74 38.23C28.49 38.36 28.65 38.28 28.45 38.38C27.94 38.63 27.32 38.35 27.18 37.79C26.23 34.01 23.82 24.36 22.91 20.73C22.66 19.71 21.62 19.11 20.61 19.39C20.18 19.51 20.66 19.38 20.21 19.51C19.21 19.79 18.58 20.78 18.75 21.81C19.49 26.22 21.53 38.4 22.3 43C22.39 43.52 22.13 44.04 21.65 44.28C21.41 44.4 21.48 44.36 21.24 44.48C20.79 44.71 20.25 44.55 19.99 44.12C18.88 42.27 16.8 38.79 15.88 37.27C15.02 35.84 13.35 35.11 11.72 35.45C11.3 35.53 12.18 35.35 11.62 35.47C10.62 35.68 10.08 36.77 10.53 37.69C14.72 46.19 15.38 47.54 16.81 50.45C22.88 62.79 40.39 62.98 46.72 50.78C48.27 47.8 49.04 46.3 53.44 37.82Z" id="c6DhXBUWkh"></path><path d="M12 24.5C12 26.43 10.43 28 8.5 28C6.57 28 5 26.43 5 24.5C5 22.57 6.57 21 8.5 21C10.43 21 12 22.57 12 24.5Z" id="fyckNkvGy"></path><path d="M21 12.5C21 14.43 19.43 16 17.5 16C15.57 16 14 14.43 14 12.5C14 10.57 15.57 9 17.5 9C19.43 9 21 10.57 21 12.5Z" id="a5XeYTpw2J"></path><path d="M35.5 8.5C35.5 10.43 33.93 12 32 12C30.07 12 28.5 10.43 28.5 8.5C28.5 6.57 30.07 5 32 5C33.93 5 35.5 6.57 35.5 8.5Z" id="h90WYCVKj"></path><path d="M50 12.5C50 14.43 48.43 16 46.5 16C44.57 16 43 14.43 43 12.5C43 10.57 44.57 9 46.5 9C48.43 9 50 10.57 50 12.5Z" id="a1OAFZ9TJZ"></path><path d="M59 23.5C59 25.43 57.43 27 55.5 27C53.57 27 52 25.43 52 23.5C52 21.57 53.57 20 55.5 20C57.43 20 59 21.57 59 23.5Z" id="a6vykZpUb"></path></defs><g><g><g><use xlink:href="#aDXZ1Nd5l" opacity="1" fill="#222222" fill-opacity="1"></use></g><g><use xlink:href="#c6DhXBUWkh" opacity="1" fill="#555555" fill-opacity="0.86"></use><g><use xlink:href="#c6DhXBUWkh" opacity="1" fill-opacity="0" stroke="#666666" stroke-width="1" stroke-opacity="1"></use></g></g><g><use xlink:href="#fyckNkvGy" opacity="1" fill="#3920ca" fill-opacity="0.98"></use><g><use xlink:href="#fyckNkvGy" opacity="1" fill-opacity="0" stroke="#28197e" stroke-width="1" stroke-opacity="1"></use></g></g><g><use xlink:href="#a5XeYTpw2J" opacity="1" fill="#1aaa9e" fill-opacity="0.98"></use><g><use xlink:href="#a5XeYTpw2J" opacity="1" fill-opacity="0" stroke="#158077" stroke-width="1" stroke-opacity="1"></use></g></g><g><use xlink:href="#h90WYCVKj" opacity="1" fill="#8eca20" fill-opacity="0.98"></use><g><use xlink:href="#h90WYCVKj" opacity="1" fill-opacity="0" stroke="#6f9c1b" stroke-width="1" stroke-opacity="1"></use></g></g><g><use xlink:href="#a1OAFZ9TJZ" opacity="1" fill="#ca2095" fill-opacity="0.98"></use><g><use xlink:href="#a1OAFZ9TJZ" opacity="1" fill-opacity="0" stroke="#9b1972" stroke-width="1" stroke-opacity="1"></use></g></g><g><use xlink:href="#a6vykZpUb" opacity="1" fill="#ca2020" fill-opacity="0.98"></use><g><use xlink:href="#a6vykZpUb" opacity="1" fill-opacity="0" stroke="#8f1515" stroke-width="1" stroke-opacity="1"></use></g></g></g></g></svg>